<?xml version="1.0" encoding="UTF-8"?>
<svg version="1.1" xmlns="http://www.w3.org/2000/svg" width="1000" height="1000">
<path d="M0 0 C2.50606902 1.64073173 4.42635076 3.66954901 6.4375 5.875 C7.24864258 6.70837891 7.24864258 6.70837891 8.07617188 7.55859375 C12 11.67588496 12 11.67588496 12 14 C12.66 14 13.32 14 14 14 C15.46728516 15.47314453 15.46728516 15.47314453 17.1640625 17.5078125 C20.77712745 21.75638809 24.54280774 25.82439263 28.375 29.875 C32.46080606 34.21193365 36.53457897 38.55209428 40.5 43 C44.38875732 47.35834311 48.37450095 51.61959398 52.375 55.875 C54.30381657 57.92976136 56.23232516 59.9848111 58.16064453 62.04003906 C59.34588856 63.30299885 60.53171626 64.56541126 61.71826172 65.82714844 C63.25445368 67.4637179 64.78438515 69.10589134 66.3125 70.75 C67.17488281 71.67296875 68.03726562 72.5959375 68.92578125 73.546875 C70.71869211 75.66730441 71.92597555 77.46031787 73 80 C73.66 80 74.32 80 75 80 C76.234375 81.22265625 76.234375 81.22265625 77.75 83.0625 C81.33689435 87.28723121 85.08140913 91.33708471 88.875 95.375 C92.98224681 99.75349544 97.06195818 104.14868184 101.0625 108.625 C109.70571892 118.23918826 116.94919365 123.60362904 130.0625 124.375 C134.97379901 123.90725724 138.09605443 123.02239452 142 120 C148.0991889 112.40917559 151.09731038 103.85791773 154 94.6875 C163.16946612 66.8045958 163.16946612 66.8045958 173 57 C173.66 57 174.32 57 175 57 C175 56.34 175 55.68 175 55 C185.70318914 48.91705953 194.23766225 46.8603373 206.33984375 49.90234375 C224.57328479 55.37043012 240.40941132 64.88421618 255 77 C255.89283691 77.73259033 255.89283691 77.73259033 256.80371094 78.47998047 C287.69616616 103.96102956 319.36135569 144.57417628 323.52734375 185.6640625 C324.88292127 202.40745812 323.12626518 220.43502978 313.125 234.5625 C312.11892716 235.73970895 311.07654577 236.88687257 310 238 C309.42765625 238.61101562 308.8553125 239.22203125 308.265625 239.8515625 C295.06699448 252.66841446 276.45947087 252.40604459 259.28417969 252.95361328 C256.89161214 253.03330191 254.50090173 253.13618846 252.109375 253.2421875 C251.3842572 253.25901581 250.6591394 253.27584412 249.91204834 253.29318237 C244.87800933 253.53671261 241.89484832 254.8336684 238 258 C235.47573523 263.04852955 236.82546521 269.19533443 238.375 274.375 C246.06569685 295.53786161 259.48224323 313.5353251 274.35449219 330.15283203 C277.12327529 333.26093484 279.84055351 336.41340602 282.5625 339.5625 C283.09834717 340.18036377 283.63419434 340.79822754 284.1862793 341.43481445 C288.40002732 346.29467475 292.5788287 351.18385921 296.75537109 356.07568359 C299.68262923 359.49390283 302.65809681 362.85883168 305.6875 366.1875 C309.64667553 370.54331424 313.37000435 375.06299826 317.0546875 379.65234375 C318.89324251 381.96072797 318.89324251 381.96072797 320.7578125 383.69140625 C322 385 322 385 322 387 C322.66 387 323.32 387 324 387 C325.56432787 388.69274284 327.05328572 390.45569852 328.5 392.25 C329.2940625 393.22453125 330.088125 394.1990625 330.90625 395.203125 C332.58748034 397.44894762 333.88135899 399.4465803 335 402 C335.66 402 336.32 402 337 402 C338.39325954 403.55240341 339.71380128 405.17029985 341 406.8125 C344.21745342 410.83947294 347.50038222 414.71057012 351 418.5 C354.23597755 422.01434121 357.32634807 425.58390445 360.3125 429.3125 C362.77274556 432.38347554 365.2767974 435.32989033 368.03125 438.13671875 C374.43012843 444.67133388 379.85198172 451.31465822 384.75 459.0625 C385.26344971 459.87203125 385.77689941 460.6815625 386.3059082 461.515625 C388.65675602 465.3534815 390.46042986 468.45642177 391 473 C389.24835159 476.78262947 386.76945869 479.47561042 383.8125 482.375 C383.09707031 483.08398438 382.38164063 483.79296875 381.64453125 484.5234375 C379.5402039 486.49410743 377.40686817 488.38259884 375.22265625 490.26171875 C370.02347837 494.78062468 365.26816891 499.71517993 360.47265625 504.65429688 C359.45365234 505.68973633 359.45365234 505.68973633 358.4140625 506.74609375 C357.8051416 507.37185303 357.1962207 507.9976123 356.56884766 508.64233398 C355 510 355 510 353 510 C352.67 510.99 352.34 511.98 352 513 C351.34 513 350.68 513 350 513 C350 513.66 350 514.32 350 515 C348.68945312 516.28710938 348.68945312 516.28710938 346.78125 517.84375 C343.02061253 521.04161601 339.50553541 524.40547634 336.03125 527.90625 C335.50249268 528.43831055 334.97373535 528.97037109 334.42895508 529.51855469 C332.78398793 531.17708807 331.14156073 532.83809535 329.5 534.5 C317.39499086 546.75502696 317.39499086 546.75502696 313.0078125 550.46875 C309.45875574 553.48867466 306.25018366 556.77006719 303.0234375 560.125 C301.92846541 561.25528583 300.83341206 562.38549295 299.73828125 563.515625 C298.05779109 565.25126921 296.38336333 566.99113918 294.72509766 568.74804688 C280.92216912 583.3344403 266.36703331 589.77794897 246.11865234 590.45141602 C233.62694097 590.64219503 223.0616902 590.04315233 213.4375 581.1875 C203.67151611 570.14947619 202.61476153 555.95272431 202.4375 541.75 C202.16991977 512.5626469 202.16991977 512.5626469 188 488 C175.40478575 477.33656708 157.45183413 474.25976358 141.3203125 475.21875 C121.19361881 477.39460878 102.44184937 486.06850592 87 499 C86.01515625 499.82113281 85.0303125 500.64226562 84.015625 501.48828125 C59.46129402 522.64278179 39.16953324 557.1030225 36.71875 589.74609375 C36.36480045 603.9188238 38.34650385 616.85677224 47.60546875 627.91796875 C58.95102116 639.26352116 75.92296764 641.5434789 91 644 C124.49348953 649.64668134 124.49348953 649.64668134 134.78125 662.16796875 C141.23573653 671.35928413 144.03449369 680.68569251 142.4453125 691.921875 C138.09996463 714.53922677 124.23914305 731.8814911 108.65625 748.16796875 C106.75281379 750.19736765 105.01268575 752.1996194 103.28125 754.36328125 C102.15203125 755.66845703 102.15203125 755.66845703 101 757 C100.34 757 99.68 757 99 757 C99 757.66 99 758.32 99 759 C98.34 759 97.68 759 97 759 C96.7834375 759.54140625 96.566875 760.0828125 96.34375 760.640625 C94.53500003 763.81645344 92.08276201 766.20728081 89.5 768.75 C89.00113281 769.25660156 88.50226563 769.76320313 87.98828125 770.28515625 C84.25341139 774 84.25341139 774 82 774 C82 774.66 82 775.32 82 776 C81.34 776 80.68 776 80 776 C80 776.66 80 777.32 80 778 C78.54223633 779.44970703 78.54223633 779.44970703 76.51953125 781.1328125 C72.09053141 784.89848511 67.89120448 788.86160456 63.6875 792.875 C57.33847477 798.88788018 50.85457459 804.56683788 44 810 C42.74154166 811.03539737 41.48518679 812.07335445 40.23046875 813.11328125 C14.28796893 834.56465343 14.28796893 834.56465343 6 836 C0.5567523 834.98713329 -2.08220225 832.19268164 -5.375 828 C-5.85412842 827.41186523 -6.33325684 826.82373047 -6.8269043 826.21777344 C-8.23102212 824.48854345 -9.61744777 822.74649106 -11 821 C-11.65871094 820.18015625 -12.31742187 819.3603125 -12.99609375 818.515625 C-14.23870508 816.9657012 -15.47677997 815.41213246 -16.7109375 813.85546875 C-19.75169702 810.06230286 -22.8438872 806.31260621 -25.9375 802.5625 C-26.54722656 801.82338379 -27.15695312 801.08426758 -27.78515625 800.32275391 C-28.97946293 798.87513863 -30.17379805 797.4275468 -31.36816406 795.97998047 C-35.61380512 790.82855184 -39.8318724 785.65451364 -44.0546875 780.484375 C-49.30313196 774.0632012 -54.57244379 767.6594752 -59.84643555 761.25927734 C-63.07114546 757.34508068 -66.29116366 753.42723253 -69.5 749.5 C-73.37042196 744.76706828 -77.24473538 740.03736481 -81.125 735.3125 C-81.69927734 734.61125 -82.27355469 733.91 -82.86523438 733.1875 C-86.27974904 729.03376052 -89.76351995 724.95322279 -93.31689453 720.91772461 C-95.86658059 718.01262105 -98.36821088 715.06709223 -100.875 712.125 C-104.38631877 708.01377392 -107.92620948 703.93937808 -111.5625 699.9375 C-115.45354972 695.65241992 -119.18907425 691.25270273 -122.90991211 686.82055664 C-125.75224719 683.4448795 -128.65236512 680.13764804 -131.625 676.875 C-134.71467339 673.47691002 -137.66873616 670.00400209 -140.5625 666.4375 C-141.30886719 665.52613281 -142.05523437 664.61476563 -142.82421875 663.67578125 C-144.22030292 661.95887343 -145.59958211 660.22808292 -146.95703125 658.48046875 C-152.98948488 651.07197682 -160.59610892 647.11836978 -170.04296875 645.69140625 C-176.86735638 645.28119716 -180.95026118 647.52737418 -186 652 C-197.71987944 663.71987944 -203.00704859 680.06985212 -208.41162109 695.33178711 C-213.3946707 709.30572561 -218.35889255 720.91307889 -232.1875 727.80859375 C-249.32321276 735.06747207 -267.58074767 728.50616497 -283.86425781 721.94018555 C-294.26672165 717.59264841 -303.7535671 712.43495406 -313 706 C-313.65806641 705.54786133 -314.31613281 705.09572266 -314.99414062 704.62988281 C-329.63122221 694.46877835 -342.21652311 682.19082327 -353 668 C-353.6489624 667.15767822 -353.6489624 667.15767822 -354.31103516 666.29833984 C-375.86337411 638.23280717 -390.21866878 603.97667027 -387 568 C-385.47004002 559.59391307 -382.3525904 552.63826162 -377 546 C-376.5565625 545.40960937 -376.113125 544.81921875 -375.65625 544.2109375 C-361.92950974 528.22074538 -334.09073592 522.91297442 -314.5625 518.1640625 C-313.593125 517.92429687 -312.62375 517.68453125 -311.625 517.4375 C-310.40683594 517.15712891 -310.40683594 517.15712891 -309.1640625 516.87109375 C-305.33024186 515.32787714 -303.4741926 512.73216193 -301.26953125 509.328125 C-299.62359681 505.01324457 -299.5881535 501.32490645 -299.6875 496.75 C-299.6987793 495.90606689 -299.71005859 495.06213379 -299.72167969 494.19262695 C-300.0023435 481.42365455 -302.8229369 474.0851504 -311.6875 464.8125 C-315.4459865 460.81682746 -319.06824136 456.78499297 -322.5 452.5 C-325.84301959 448.3333379 -329.35115137 444.39580188 -333 440.5 C-337.45874444 435.73911006 -341.6379783 430.8353218 -345.72265625 425.74609375 C-348.66209223 422.20162806 -351.78493563 418.84236811 -354.92089844 415.47363281 C-357.8516427 412.30630794 -360.62034872 409.0589325 -363.3125 405.6875 C-367.01048078 401.08660111 -370.94722815 396.78506552 -375 392.5 C-379.85108192 387.37057203 -384.44448948 382.13831615 -388.8515625 376.6171875 C-391.18393607 373.77593243 -393.63275933 371.07679845 -396.125 368.375 C-407.77167285 355.59829003 -407.77167285 355.59829003 -408.4375 350.9375 C-406.24224835 346.45155098 -402.87443545 343.12173327 -399 340 C-398.34 340 -397.68 340 -397 340 C-397 339.34 -397 338.68 -397 338 C-395.671875 336.66015625 -395.671875 336.66015625 -393.75 335.0625 C-390.1362856 331.99148123 -386.61031621 328.84028771 -383.125 325.625 C-379.43502771 322.2290471 -375.73293734 318.84884089 -372 315.5 C-366.29338306 310.37680716 -360.64684646 305.18880061 -355 300 C-348.54903192 294.07230436 -342.08281284 288.1640628 -335.5625 282.3125 C-332.17601679 279.25640539 -328.81755186 276.17014388 -325.45874023 273.08374023 C-322.34366875 270.22397796 -319.21148325 267.38484641 -316.0625 264.5625 C-312.13173139 261.03683475 -308.24781509 257.46393802 -304.375 253.875 C-300.99679451 250.74470066 -297.61582918 247.6301486 -294.125 244.625 C-291.50862276 242.37046217 -288.97264329 240.04547554 -286.4609375 237.67578125 C-285.81108887 237.06331543 -285.16124023 236.45084961 -284.49169922 235.81982422 C-283.2008157 234.59983011 -281.91316661 233.37640088 -280.62939453 232.14892578 C-274.21718089 226.08908742 -267.95763649 221.04106072 -259.75 217.6875 C-258.56921875 217.19636719 -257.3884375 216.70523438 -256.171875 216.19921875 C-248.06345118 213.13359546 -238.30679715 212.22124253 -230.125 215.5625 C-219.02623618 221.39090111 -213.13873429 230.50890695 -209 242 C-207.1995256 247.82253289 -205.59355876 253.69637971 -204.02319336 259.5847168 C-199.78300519 275.38348562 -193.46684357 289.89474715 -178.8984375 298.49609375 C-171.51111645 302.32913769 -164.32055711 304.64656041 -156 305 C-155.30261719 305.0515625 -154.60523438 305.103125 -153.88671875 305.15625 C-128.92665067 306.19086422 -105.49732689 296.05899983 -87.3125 279.4375 C-66.30710375 259.47096805 -47.34697009 229.52717709 -46.5625 199.75 C-46.99147385 187.93981378 -49.95699111 177.12209156 -58.47851562 168.50488281 C-62.89146501 164.48131131 -67.58275403 161.94166137 -73 159.5 C-73.82943115 159.11545654 -74.6588623 158.73091309 -75.51342773 158.3347168 C-80.63385331 155.9874253 -85.80885385 153.84067711 -91.0625 151.8125 C-104.4470019 146.56508519 -115.82329587 139.49451667 -121.90234375 126.015625 C-124.87476321 117.84940498 -124.48241168 110.94086261 -121 103 C-116.76760172 94.61727211 -111.48993667 89.4860501 -104 84 C-97.64796771 78.94559716 -91.51696247 73.70680515 -85.51953125 68.23828125 C-82.96795083 65.97152842 -80.34828468 63.82459913 -77.6875 61.6875 C-72.87334412 57.79679292 -68.35075666 53.66999534 -63.83666992 49.44213867 C-59.64706391 45.54031611 -55.27845286 41.92689822 -50.8125 38.34375 C-47.60150195 35.66791829 -44.54970863 32.85641724 -41.5 30 C-36.77011968 25.56990083 -31.8982057 21.42279048 -26.83984375 17.3671875 C-22.89555285 14.07937418 -19.15108514 10.59232842 -15.4140625 7.07226562 C-13.95464687 5.70201629 -12.47795571 4.35023114 -11 3 C-10.35933594 2.38898438 -9.71867187 1.77796875 -9.05859375 1.1484375 C-5.8042763 -0.66706407 -3.66035765 -0.55590458 0 0 Z " fill="#520034" transform="translate(487,66)"/>
<path d="M0 0 C0.74886475 0.00523682 1.49772949 0.01047363 2.26928711 0.01586914 C3.07817383 0.0190918 3.88706055 0.02231445 4.72045898 0.02563477 C5.5705957 0.03401367 6.42073242 0.04239258 7.29663086 0.05102539 C8.15063477 0.05553711 9.00463867 0.06004883 9.88452148 0.06469727 C12.00108749 0.07652166 14.11761771 0.0944577 16.23413086 0.11352539 C14.99520915 11.10672653 13.56979692 22.04840273 11.92163086 32.98852539 C11.47616704 35.97008051 11.03267262 38.95192664 10.58959961 41.93383789 C10.42069717 43.06873657 10.42069717 43.06873657 10.24838257 44.2265625 C9.46673916 49.49564096 8.71178197 54.76804799 7.97241211 60.04321289 C7.86821457 60.78397064 7.76401703 61.52472839 7.65666199 62.28793335 C7.16602935 65.77724226 6.67857061 69.26688723 6.19775391 72.75756836 C4.93669423 81.79328237 3.47061485 90.78874046 1.95678711 99.78540039 C-0.83486098 116.38014986 -3.45925327 132.9995741 -6.05029297 149.62670898 C-6.56854927 152.9516102 -7.08910998 156.27613731 -7.61181641 159.6003418 C-10.42114821 177.46897983 -13.12747532 195.33629916 -15.46240234 213.27365112 C-16.5749141 221.79905318 -17.84023371 230.27068404 -19.32836914 238.73852539 C-20.66045454 246.43208795 -21.93490129 254.1281468 -23.07836914 261.85180664 C-24.44121069 271.05287974 -25.87528807 280.24215388 -27.32446289 289.42993164 C-27.43998064 290.16284172 -27.55549839 290.8957518 -27.67451668 291.65087128 C-28.75779178 298.52352543 -29.84291437 305.39588736 -30.92919922 312.26806641 C-33.97421859 331.5359897 -36.95599028 350.80961611 -39.76586914 370.11352539 C-43.7167794 370.82635384 -47.57255396 371.29372563 -51.58081055 371.50244141 C-53.26383774 371.59242149 -53.26383774 371.59242149 -54.98086548 371.68421936 C-56.18093231 371.74467941 -57.38099915 371.80513947 -58.61743164 371.86743164 C-59.86785248 371.93260483 -61.11827332 371.99777802 -62.40658569 372.06492615 C-65.05085347 372.20186553 -67.69514856 372.33743534 -70.33959961 372.47070312 C-73.02986591 372.60641629 -75.719953 372.74504713 -78.40991211 372.88671875 C-82.31225145 373.09201677 -86.21479238 373.29292406 -90.11743164 373.49243164 C-91.30535309 373.55491592 -92.49327454 373.61740021 -93.7171936 373.68177795 C-101.07373734 374.04823826 -108.40051436 374.18849603 -115.76586914 374.11352539 C-114.21022469 359.81989818 -112.06277661 345.67462518 -109.63696289 331.50415039 C-106.9543821 315.76135553 -104.56276736 300.01310662 -102.46557617 284.18212891 C-100.86036862 272.16649808 -100.86036862 272.16649808 -99.77758789 267.69555664 C-97.99569718 260.29978076 -97.26471491 252.64793537 -96.26586914 245.11352539 C-93.82625151 226.71120538 -93.82625151 226.71120538 -92.22583008 220.11791992 C-91.31213209 216.136253 -90.75467718 212.08775272 -90.14086914 208.05102539 C-90.00680664 207.18541992 -89.87274414 206.31981445 -89.73461914 205.42797852 C-89.40907461 203.32356565 -89.08709146 201.21860234 -88.76586914 199.11352539 C-89.57628662 199.17411133 -90.3867041 199.23469727 -91.22167969 199.29711914 C-94.29482056 199.52454862 -97.36824044 199.74764097 -100.44189453 199.96801758 C-102.3997317 200.10964532 -104.35722152 200.25604949 -106.31469727 200.40258789 C-114.48190783 200.98447567 -122.57862206 201.23837592 -130.76586914 201.11352539 C-130.8393457 202.07838867 -130.8393457 202.07838867 -130.91430664 203.06274414 C-131.32901366 208.07497899 -131.8642577 213.03508395 -132.64477539 218.00415039 C-132.82202148 219.13554443 -132.99926758 220.26693848 -133.18188477 221.43261719 C-133.37459961 222.64731689 -133.56731445 223.8620166 -133.76586914 225.11352539 C-133.96889648 226.39718994 -134.17192383 227.68085449 -134.38110352 229.00341797 C-134.91596774 232.37599118 -135.45586095 235.7477373 -135.99804688 239.11914062 C-136.2208294 240.50638581 -136.44281696 241.89375886 -136.6640625 243.28125 C-136.98927676 245.32066884 -137.31676213 247.35971135 -137.64477539 249.39868164 C-137.83628174 250.59372314 -138.02778809 251.78876465 -138.22509766 253.02001953 C-138.64601236 255.42787964 -139.12486275 257.75734459 -139.76586914 260.11352539 C-155.12836893 261.42141957 -170.49527829 262.42760779 -185.89086914 263.23852539 C-187.13383759 263.30496246 -187.13383759 263.30496246 -188.4019165 263.3727417 C-190.79654034 263.49997333 -193.19131123 263.62384346 -195.58618164 263.74633789 C-196.29367554 263.78374084 -197.00116943 263.8211438 -197.73010254 263.85968018 C-202.41635833 264.09261293 -207.07575184 264.14437711 -211.76586914 264.11352539 C-211.15365766 255.42798557 -209.81958738 246.93694336 -208.32836914 238.36352539 C-206.75626289 229.27609817 -205.33255112 220.20651385 -204.2109375 211.05395508 C-203.76586914 208.11352539 -203.76586914 208.11352539 -202.76586914 206.11352539 C-203.53552002 206.14381836 -204.3051709 206.17411133 -205.09814453 206.20532227 C-233.3472694 207.303606 -233.3472694 207.303606 -245.76586914 207.11352539 C-245.8393457 208.43803711 -245.8393457 208.43803711 -245.91430664 209.78930664 C-245.98907227 210.98942383 -246.06383789 212.18954102 -246.14086914 213.42602539 C-246.21047852 214.5977832 -246.28008789 215.76954102 -246.35180664 216.97680664 C-246.69129028 221.06530435 -247.44636677 225.04577638 -248.20874023 229.07373047 C-249.22697064 234.62937763 -250.04434506 240.21710173 -250.89086914 245.80102539 C-251.07262695 246.99147461 -251.25438477 248.18192383 -251.44165039 249.40844727 C-251.88444712 252.30993112 -252.32582782 255.2116226 -252.76586914 258.11352539 C-253.74972295 256.15673819 -254.72451395 254.20424601 -255.63305664 252.21118164 C-258.92324299 245.56704565 -263.66480055 240.68387064 -268.71899414 235.37133789 C-271.38230478 232.56116564 -273.84829657 229.63990273 -276.26586914 226.61352539 C-279.60888675 222.44686576 -283.11700258 218.50930773 -286.76586914 214.61352539 C-291.19472155 209.8849762 -295.34118973 205.01496025 -299.39477539 199.95727539 C-302.71070832 195.980341 -306.23013784 192.20642047 -309.78149414 188.43969727 C-314.45770369 183.46119977 -316.11976438 180.95064651 -315.97720337 174.2409668 C-315.53601411 167.71200293 -314.46929843 161.26192034 -313.46508789 154.80102539 C-313.22504293 153.22185354 -312.98561933 151.64258713 -312.7467804 150.06323242 C-312.1183301 145.91980416 -311.48082915 141.77781707 -310.84155273 137.63604736 C-310.32827623 134.30063783 -309.82141039 130.96426997 -309.31492901 127.62782288 C-308.70049246 123.58105786 -308.08321654 119.53472793 -307.46508789 115.48852539 C-307.35127966 114.74331635 -307.23747143 113.9981073 -307.12021446 113.23031616 C-306.57052415 109.63892777 -306.01220773 106.04936129 -305.43734741 102.46191406 C-304.95090279 99.39980214 -304.53278536 96.33518703 -304.14346313 93.25927734 C-303.9211323 91.65208132 -303.69867278 90.0449031 -303.47607422 88.43774414 C-303.39422473 87.70127655 -303.31237524 86.96480896 -303.22804546 86.20602417 C-302.25662665 79.52088518 -298.73200188 76.16930749 -293.77172852 71.88110352 C-293.24385742 71.49374023 -292.71598633 71.10637695 -292.17211914 70.70727539 C-289.20214731 68.46329668 -286.44223243 66.07647076 -283.70336914 63.55102539 C-282.90801758 62.83817383 -282.11266602 62.12532227 -281.29321289 61.39086914 C-278.43504711 58.81542764 -275.59876653 56.21666775 -272.76586914 53.61352539 C-268.31254297 49.52183332 -263.82927026 45.46529563 -259.32836914 41.42602539 C-256.45986416 38.83737455 -253.61119441 36.22757481 -250.76586914 33.61352539 C-241.46683658 25.0751742 -241.46683658 25.0751742 -236.98852539 21.12915039 C-234.78758497 19.1914097 -234.78758497 19.1914097 -233.01196289 17.22290039 C-230.26053313 14.38528127 -228.68320866 13.22110745 -224.66821289 12.75024414 C-221.67475073 12.73974076 -218.74665992 12.84921882 -215.76586914 13.11352539 C-215.45505713 20.94262785 -216.6565607 28.17786929 -218.07836914 35.86352539 C-220.23847802 47.91768387 -222.13444765 59.97734112 -223.76586914 72.11352539 C-223.08395508 71.96012695 -222.40204102 71.80672852 -221.69946289 71.64868164 C-211.26100165 69.74446168 -200.34129391 69.96687081 -189.76586914 70.11352539 C-190.75088861 80.12595857 -192.01439958 89.93289458 -193.97290039 99.80493164 C-195.13500524 105.86953099 -195.933004 111.99175491 -196.76367188 118.10888672 C-196.8804126 118.96119873 -196.99715332 119.81351074 -197.11743164 120.69165039 C-197.26946045 121.82715332 -197.26946045 121.82715332 -197.42456055 122.9855957 C-197.7557136 125.05020947 -198.25872649 127.08495479 -198.76586914 129.11352539 C-186.22586914 128.45352539 -173.68586914 127.79352539 -160.76586914 127.11352539 C-161.44030434 134.53231261 -162.17403089 141.86369106 -163.14086914 149.23852539 C-163.33495361 150.72642578 -163.33495361 150.72642578 -163.53295898 152.24438477 C-164.52932876 159.71054766 -165.74017726 167.11518194 -167.11743164 174.51977539 C-167.75370084 178.04608659 -168.28100761 181.56397308 -168.76586914 185.11352539 C-165.13586914 185.11352539 -161.50586914 185.11352539 -157.76586914 185.11352539 C-157.72719727 183.76387695 -157.72719727 183.76387695 -157.68774414 182.38696289 C-157.28663991 173.28918958 -156.07581521 164.59165139 -154.35766602 155.65161133 C-152.48183483 145.84613011 -151.12079348 136.00447306 -149.76586914 126.11352539 C-137.55586914 125.45352539 -125.34586914 124.79352539 -112.76586914 124.11352539 C-111.44586914 115.53352539 -110.12586914 106.95352539 -108.76586914 98.11352539 C-100.96703214 95.88528625 -100.96703214 95.88528625 -97.70727539 95.28930664 C-77.02008368 91.26542286 -59.59328592 82.16613199 -43.76586914 68.11352539 C-43.01950195 67.45094727 -42.27313477 66.78836914 -41.50415039 66.10571289 C-23.94605953 49.52482278 -10.54100999 26.2933325 -3.49243164 3.30883789 C-2.44945292 0.15747209 -2.44945292 0.15747209 0 0 Z " fill="#FEFDFE" transform="translate(451.765869140625,285.886474609375)"/>
<path d="M0 0 C-0.44806626 12.34499798 -1.063527 25.19058101 -5 37 C-6.25554687 37.03738281 -7.51109375 37.07476562 -8.8046875 37.11328125 C-25.8920765 37.57814155 -25.8920765 37.57814155 -40.30859375 45.98828125 C-44.45298533 50.91752297 -45.39656209 55.13714612 -45.3125 61.5 C-45.30863281 62.7684375 -45.30476562 64.036875 -45.30078125 65.34375 C-45.00795804 68.90326329 -44.17996008 71.65286224 -43 75 C-43 76.32 -43 77.64 -43 79 C-63.48725017 80.44704519 -83.98984142 81.55996246 -104.5 82.625 C-105.80241638 82.69320953 -107.10483276 82.76141907 -108.44671631 82.83169556 C-112.20395372 83.02796298 -115.96132052 83.22151058 -119.71875 83.4140625 C-121.42026718 83.50298515 -121.42026718 83.50298515 -123.15615845 83.59370422 C-128.44510423 83.8611093 -133.70425081 84.07097591 -139 84 C-139.05188477 84.63309082 -139.10376953 85.26618164 -139.15722656 85.91845703 C-139.81772956 93.59991345 -140.73394956 101.23303566 -141.75 108.875 C-141.92337891 110.18073975 -142.09675781 111.48647949 -142.27539062 112.83178711 C-143.64455867 122.97000844 -145.33550677 133.0362143 -147.13256836 143.10766602 C-149.47069676 156.35343104 -151.25674848 169.66464334 -153 183 C-151.89342041 182.87302734 -150.78684082 182.74605469 -149.64672852 182.61523438 C-133.17274491 180.80648042 -116.66410267 180.0901203 -100.11499023 179.32275391 C-85.34909313 178.63103184 -70.67666115 177.7990525 -56 176 C-55.75092896 174.17178711 -55.75092896 174.17178711 -55.49682617 172.30664062 C-54.86900137 167.70631326 -54.23588699 163.10672577 -53.60131836 158.50732422 C-53.32940771 156.53127977 -53.05885821 154.55504745 -52.78979492 152.57861328 C-50.22486248 133.7500031 -50.22486248 133.7500031 -48.43359375 124.578125 C-46.92308272 116.82876221 -45.86179616 109.08121436 -44.875 101.25 C-44.54206462 98.6298049 -44.20527871 96.01016632 -43.8671875 93.390625 C-43.72394043 92.25657227 -43.58069336 91.12251953 -43.43310547 89.95410156 C-43.08353874 87.56979636 -42.64551743 85.3176409 -42 83 C-41.34 83 -40.68 83 -40 83 C-39.63201294 83.73766602 -39.63201294 83.73766602 -39.2565918 84.49023438 C-29.77428711 103.35413121 -18.54129357 119.98824613 -4.13891602 135.4675293 C-0.32655994 139.58302864 3.21102095 143.88168941 6.7265625 148.25390625 C9.99035391 152.19625223 13.4512981 155.93817386 16.93359375 159.6875 C20.98760556 164.22431473 20.98760556 164.22431473 21.046875 167.93359375 C20.38858113 175.70319372 19.44578017 183.33596144 18 191 C6.61855043 192.28241685 -4.5318511 193.34176603 -16 193 C-16.03738281 193.61101562 -16.07476563 194.22203125 -16.11328125 194.8515625 C-17.08609456 208.39464974 -18.88448077 222.01158019 -21.49584961 235.33618164 C-22.06042447 238.31926942 -22.56347327 241.3093113 -23.05859375 244.3046875 C-23.23575928 245.37444824 -23.4129248 246.44420898 -23.59545898 247.54638672 C-23.72895752 248.3560791 -23.86245605 249.16577148 -24 250 C-24.87013733 250.05819916 -25.74027466 250.11639832 -26.63677979 250.17636108 C-34.93067893 250.73168796 -43.2243555 251.29021511 -51.51781082 251.8521328 C-55.77917719 252.14075105 -60.04061336 252.42823031 -64.30224609 252.71289062 C-89.70350147 254.40848164 -89.70350147 254.40848164 -115.04705811 256.79656982 C-120.33456621 257.34734848 -125.63570958 257.7413489 -130.9375 258.125 C-132.10829102 258.20991699 -133.27908203 258.29483398 -134.48535156 258.38232422 C-145.00115268 259.09339268 -155.46580143 259.20521166 -166 259 C-166.02578125 259.67546875 -166.0515625 260.3509375 -166.078125 261.046875 C-166.54224509 268.34621829 -166.54224509 268.34621829 -168.66015625 271.37109375 C-171.53001189 273.36897322 -174.44733907 275.25263316 -177.4375 277.0625 C-208.78605509 296.65586233 -232.23215078 330.49405378 -242 366 C-242.92470044 370.0299254 -243.69712189 374.07802176 -244.421875 378.1484375 C-245 381 -245 381 -246 382 C-248.35313555 382.07271741 -250.70833668 382.08370868 -253.0625 382.0625 C-254.35285156 382.05347656 -255.64320313 382.04445313 -256.97265625 382.03515625 C-258.47119141 382.01775391 -258.47119141 382.01775391 -260 382 C-259.65529333 375.05832093 -258.96921699 368.4036667 -257.609375 361.5859375 C-255.96945041 353.13539477 -254.73511784 344.65101005 -253.5625 336.125 C-252.02711436 325.03912696 -250.39372893 313.9724538 -248.68008423 302.91265869 C-247.31429824 294.08262049 -245.9814617 285.24797395 -244.66082573 276.41109848 C-244.30774336 274.04899841 -243.95413616 271.6869775 -243.60035706 269.32498169 C-242.15074199 259.646764 -242.15074199 259.646764 -240.70629883 249.96777344 C-240.10774003 245.94976666 -239.50623293 241.93221032 -238.90287971 237.91492081 C-238.67821596 236.41553526 -238.45457025 234.91599671 -238.23208427 233.41628647 C-236.99097623 225.05380956 -235.61490348 216.73719163 -234.02568531 208.43346405 C-233.16135141 203.9093907 -232.40923789 199.39931759 -231.7890625 194.8359375 C-231.5969875 193.44880303 -231.40484625 192.06167773 -231.21264648 190.67456055 C-231.11700409 189.97406586 -231.02136169 189.27357117 -230.92282104 188.55184937 C-229.28239141 176.5615341 -227.48632866 164.61542805 -225.4375 152.6875 C-223.82689398 143.26880893 -222.3988038 133.85318775 -221.1875 124.375 C-219.3341455 109.92301093 -217.15019931 95.52584947 -214.9375 81.125 C-214.67965225 79.43754669 -214.67965225 79.43754669 -214.41659546 77.71600342 C-211.27911281 57.21034664 -211.27911281 57.21034664 -209.50390625 48.1796875 C-207.17301697 36.20487432 -205.66679275 24.08138245 -204 12 C-147.99827984 7.98989767 -147.99827984 7.98989767 -126.375 7 C-109.2809196 6.21346539 -92.20311958 5.19698022 -75.12451935 4.13214111 C-73.03999149 4.0024874 -70.95540117 3.87388884 -68.87078857 3.74560547 C-54.52550094 2.86150033 -40.1904045 1.94253825 -25.87768555 0.62036133 C-17.2446469 -0.152361 -8.65980364 -0.19681372 0 0 Z " fill="#FEFDFD" transform="translate(757,269)"/>
<path d="M0 0 C0.0561088 1.43700876 0.09369567 2.87473702 0.125 4.3125 C0.14820313 5.11300781 0.17140625 5.91351562 0.1953125 6.73828125 C-0.03323211 10.55497619 -0.73319395 14.1756328 -1.44726562 17.92797852 C-2.42502835 23.362249 -3.09201218 28.83927443 -3.8125 34.3125 C-5.86688544 49.60171516 -8.37883039 64.79883425 -11 80 C-12.001521 80.05534912 -13.00304199 80.11069824 -14.03491211 80.16772461 C-17.83896521 80.37803649 -21.64299622 80.58874588 -25.44702148 80.79956055 C-27.07689852 80.8898341 -28.70678112 80.98000734 -30.33666992 81.07006836 C-32.7127435 81.20137962 -35.08879716 81.33304524 -37.46484375 81.46484375 C-38.25410751 81.50850571 -39.04337128 81.55216766 -39.85655212 81.59715271 C-43.82302422 81.8178849 -47.7888948 82.04569267 -51.75415039 82.28735352 C-52.51607193 82.3335231 -53.27799347 82.37969269 -54.06300354 82.42726135 C-55.49151055 82.51435238 -56.91993484 82.6028165 -58.34825134 82.69297791 C-63.9033274 83.03133383 -69.43688166 83.10813837 -75 83 C-79.32093296 68.91157994 -82.20744566 50.30356076 -76.3203125 36.4296875 C-67.73322333 20.62741098 -48.67994048 14.70159039 -32.453125 9.890625 C-27.49806153 8.6126222 -22.48861223 7.61771349 -17.47900391 6.57836914 C-11.99777588 5.37887112 -5.01859269 0 0 0 Z " fill="#FCFCFC" transform="translate(191,590)"/>
<path d="M0 0 C0.66 0.33 1.32 0.66 2 1 C-0.28356246 3.34138543 -2.57813374 5.67166982 -4.875 8 C-5.85146484 9.00160156 -5.85146484 9.00160156 -6.84765625 10.0234375 C-7.47285156 10.65507812 -8.09804687 11.28671875 -8.7421875 11.9375 C-9.3182373 12.52402344 -9.89428711 13.11054688 -10.48779297 13.71484375 C-12 15 -12 15 -14 15 C-12.46000416 11.16751036 -10.08835992 9.05935935 -7 6.375 C-6.113125 5.59898437 -5.22625 4.82296875 -4.3125 4.0234375 C-3.1678125 3.02183594 -3.1678125 3.02183594 -2 2 C-1.34 1.34 -0.68 0.68 0 0 Z " fill="#DFD1DA" transform="translate(164,353)"/>
</svg>
